<svg xmlns="http://www.w3.org/2000/svg" viewBox="0 0 256 256" width="24" height="24" fill="none">
  <path d="M122.0,21.0L73.0,36.0L45.0,60.0L26.0,95.0L21.0,133.0L36.0,182.0L60.0,210.0L92.0,228.0L132.0,234.0L168.0,226.0L209.0,196.0L228.0,163.0L234.0,122.0L219.0,73.0L195.0,45.0L157.0,25.0Z M125.0,63.0L134.0,65.0L139.0,73.0L139.0,116.0L182.0,116.0L192.0,125.0L190.0,134.0L182.0,139.0L139.0,139.0L139.0,182.0L130.0,192.0L121.0,190.0L116.0,182.0L116.0,139.0L73.0,139.0L63.0,130.0L65.0,121.0L73.0,116.0L116.0,116.0L116.0,73.0Z" fill="#000000" fill-rule="evenodd"/>
</svg>