<svg xmlns="http://www.w3.org/2000/svg" viewBox="0 0 256 256" width="24" height="24" fill="none">
  <path d="M125.0,80.0L120.0,85.0L119.0,120.0L85.0,120.0L81.0,123.0L80.0,130.0L85.0,135.0L120.0,136.0L120.0,170.0L123.0,174.0L130.0,175.0L135.0,170.0L136.0,135.0L170.0,135.0L174.0,132.0L175.0,125.0L170.0,120.0L135.0,119.0L135.0,85.0L132.0,81.0Z M120.0,48.0L88.0,58.0L64.0,79.0L50.0,108.0L48.0,136.0L58.0,167.0L79.0,191.0L108.0,205.0L136.0,207.0L167.0,197.0L191.0,176.0L205.0,147.0L207.0,119.0L197.0,88.0L176.0,64.0L147.0,50.0Z M120.0,63.0L145.0,65.0L168.0,77.0L184.0,96.0L192.0,120.0L190.0,145.0L178.0,168.0L161.0,183.0L135.0,192.0L110.0,190.0L87.0,178.0L72.0,161.0L63.0,135.0L65.0,110.0L77.0,87.0L94.0,72.0Z" fill="#000000" fill-rule="evenodd"/>
</svg>