<svg xmlns="http://www.w3.org/2000/svg" viewBox="0 0 256 256" width="24" height="24" fill="none">
  <path d="M191.7,180.3L183.5,188.6L170.7,194.1L137.9,214.7L94.7,232.6L118.1,236.7L136.8,236.7L155.5,234.0L173.0,228.5L185.9,220.2L190.5,213.3Z M156.6,210.6L160.1,210.6L163.7,214.7L163.7,218.8L161.3,221.6L156.6,221.6L153.1,217.5L153.1,214.7Z M171.8,203.7L177.7,203.7L180.0,206.5L180.0,210.6L176.5,214.7L173.0,214.7L169.5,210.6L169.5,206.5Z M63.1,178.9L62.0,202.3L74.8,202.3L90.0,199.6L94.7,196.8L91.2,196.8L79.5,192.7L66.6,184.4Z M54.9,139.0L49.1,145.9L45.6,151.4L44.4,155.5L42.1,158.3L37.4,172.0L37.4,176.2L43.3,159.7L45.6,156.9L46.8,152.8L54.9,141.8Z M191.7,137.6L171.8,151.4L139.1,159.7L95.9,156.9L77.2,150.0L62.0,137.6L62.0,166.5L69.0,177.5L81.8,185.8L97.0,191.3L111.1,192.7L155.5,169.3L174.2,155.5Z M190.5,95.0L177.7,107.4L143.8,117.0L107.5,117.0L78.3,108.7L62.0,96.3L62.0,125.2L74.8,140.4L94.7,148.6L121.6,152.8L152.0,150.0L170.7,144.5L188.2,132.1L190.5,128.0Z M155.5,126.6L161.3,126.6L163.7,129.4L163.7,133.5L160.1,137.6L156.6,137.6L153.1,133.5L153.1,129.4Z M173.0,118.4L176.5,118.4L180.0,122.5L180.0,125.2L176.5,129.4L173.0,129.4L169.5,125.2L169.5,122.5Z M244.3,74.3L226.8,63.3L192.9,70.2L225.6,82.6L226.8,97.7L215.1,121.1L160.1,173.4L90.0,206.5L54.9,209.2L32.7,192.7L33.9,165.2L54.9,123.9L17.5,177.5L12.9,195.4L16.4,216.1L31.6,229.8L64.3,232.6L112.2,218.8L154.3,196.8L196.4,165.2L230.3,128.0L246.6,95.0Z M63.1,78.5L64.3,89.5L78.3,100.5L99.4,107.4L122.7,110.1L163.7,104.6L183.5,95.0L190.5,86.7L187.0,79.8L176.5,81.2L163.7,68.8L143.8,63.3L164.8,61.9L176.5,66.1L168.3,61.9L134.4,56.4L87.7,61.9L72.5,68.8Z M180.0,53.7L180.0,66.1L191.7,66.1L191.7,52.3Z M167.2,48.2L168.3,56.4L175.3,55.1L175.3,48.2L173.0,46.8L169.5,46.8Z M224.4,44.0L224.4,46.8L227.9,46.8L226.8,42.7Z M197.6,42.7L197.6,57.8L210.4,57.8L210.4,42.7Z M188.2,33.0L189.4,39.9L195.2,38.5L194.0,31.7Z M213.9,30.3L215.1,39.9L223.3,39.9L223.3,28.9Z M227.9,17.9L229.1,26.2L236.1,24.8L235.0,16.5Z" fill="#000000" fill-rule="evenodd"/>
</svg>