<svg xmlns="http://www.w3.org/2000/svg" viewBox="0 0 256 256" width="24" height="24" fill="none">
  <path d="M76.4,183.0L76.9,216.8L82.8,223.3L96.5,229.5L120.6,233.5L149.3,231.9L171.1,224.6L179.5,214.8L179.5,183.4L174.1,190.8L161.2,197.2L122.6,201.9L91.2,196.0L80.1,189.4Z M76.4,169.0L85.6,179.3L106.3,186.1L136.0,187.7L160.5,183.4L172.4,178.1L178.8,171.3L179.5,137.6L172.5,146.3L159.0,152.1L121.7,156.0L90.2,149.8L80.2,143.8L76.4,137.4Z M238.8,134.9L233.5,142.4L221.5,148.4L203.1,152.5L183.9,153.4L184.0,185.0L214.5,182.1L225.5,178.6L234.8,172.9L238.8,166.5Z M17.0,134.9L17.0,166.5L21.0,172.9L28.4,177.7L42.8,182.5L72.0,184.8L71.8,153.4L50.1,152.1L34.3,148.4L21.7,141.8Z M239.0,89.1L233.1,96.9L221.1,102.8L204.8,106.5L183.9,107.8L184.0,139.4L213.2,136.7L224.7,133.1L234.3,127.6L238.8,120.7Z M17.0,89.1L16.9,119.3L20.6,126.8L28.3,131.9L41.2,136.3L72.0,139.2L71.8,107.6L52.5,106.7L35.3,103.0L22.8,96.9Z M76.5,88.1L76.8,125.0L83.0,131.9L94.1,137.2L122.1,142.0L146.7,140.8L168.7,134.4L179.4,124.1L179.1,87.2L173.0,80.2L161.4,74.7L134.2,70.1L106.7,71.7L86.7,77.9Z M86.5,89.3L90.9,84.0L100.3,80.1L131.3,76.7L159.5,81.3L167.6,86.1L169.3,90.7L165.6,95.7L156.2,100.0L126.6,103.5L97.5,99.2L88.7,94.4Z M135.8,39.6L135.7,64.6L158.2,68.0L173.5,74.2L182.0,82.6L184.2,93.6L222.1,88.4L232.8,83.1L238.7,75.6L238.7,39.4L232.9,32.1L222.4,26.8L199.6,22.0L168.1,22.9L146.7,29.1Z M145.9,41.0L149.0,36.4L158.4,32.0L173.2,28.9L190.4,28.2L207.5,29.8L218.8,32.8L226.2,36.9L228.7,42.4L223.6,48.1L212.9,52.2L180.6,54.9L155.1,50.1L148.1,46.0Z M120.2,40.3L111.8,30.5L90.0,23.3L61.4,21.7L35.6,26.1L22.9,32.1L17.3,39.1L17.2,75.6L22.4,82.6L33.8,88.4L71.7,93.6L73.9,82.6L82.4,74.2L97.6,68.0L120.2,64.6Z M27.2,40.8L31.3,35.7L42.0,31.2L71.6,28.2L99.2,32.5L107.7,37.1L110.0,42.3L105.5,47.8L94.2,52.2L61.9,54.9L35.8,49.9L29.4,46.0Z" fill="#000000" fill-rule="evenodd"/>
</svg>