<svg xmlns="http://www.w3.org/2000/svg" viewBox="0 0 256 256" width="24" height="24" fill="none">
  <path d="M136.2,193.1L134.5,193.1L132.1,196.3L131.5,199.5L131.5,203.7L130.3,209.1L129.2,219.7L128.6,229.3L130.3,233.6L132.1,234.7L133.9,233.6L135.6,229.3L138.6,202.7L138.6,196.3Z M143.3,189.9L142.7,193.1L143.3,196.3L156.2,216.5L159.1,216.5L160.9,215.5L161.5,213.3L161.5,208.0L148.0,186.7L145.0,186.7Z M83.4,126.9L75.7,132.3L72.8,139.7L72.2,146.1L77.5,172.8L81.6,178.1L85.7,178.1L92.8,172.8L95.7,167.5L97.5,161.1L98.1,154.7L93.9,154.7L91.6,150.4L91.6,142.9L93.4,135.5L93.4,132.3L89.8,128.0Z M103.9,86.4L78.1,78.9L15.9,122.7L6.5,140.8L0.0,170.7L0.6,199.5L9.4,230.4L26.4,251.7L47.0,254.9L111.6,209.1L116.3,200.5L123.3,140.8L108.6,128.0L97.5,181.3L53.4,212.3L32.3,215.5L24.1,203.7L20.0,182.4L22.3,164.3L32.9,147.2L81.6,115.2L96.3,120.5Z M173.2,76.8L169.7,76.8L164.4,80.0L159.7,87.5L157.9,93.9L157.9,101.3L160.9,100.3L163.8,104.5L163.8,112.0L162.1,119.5L162.6,123.7L166.2,126.9L170.3,128.0L178.5,123.7L182.6,115.2L183.2,109.9L182.6,104.5L181.4,101.3L179.1,86.4L176.7,80.0Z M97.5,43.7L96.9,45.9L96.9,49.1L97.5,51.2L100.4,56.5L110.4,71.5L113.9,71.5L115.7,68.3L115.7,64.0L115.1,61.9L102.8,42.7L101.6,41.6L98.6,41.6Z M128.0,27.7L125.7,27.7L123.3,32.0L119.8,60.8L119.8,65.1L122.1,69.3L124.5,69.3L126.8,65.1L130.3,36.3L130.3,32.0L129.2,28.8Z M241.3,16.0L227.2,2.1L209.0,0.0L149.1,39.5L142.7,49.1L133.9,115.2L146.8,126.9L152.1,114.1L152.1,87.5L158.5,72.5L217.2,36.3L233.7,58.7L231.9,93.9L223.7,106.7L175.0,138.7L159.1,134.4L153.8,162.1L166.8,176.0L177.3,176.0L236.0,136.5L249.0,114.1L255.4,85.3L254.2,51.2Z" fill="#000000" fill-rule="evenodd"/>
</svg>