<svg xmlns="http://www.w3.org/2000/svg" viewBox="0 0 256 256" width="24" height="24" fill="none">
  <path d="M18.4,125.7L24.9,145.5L41.2,164.1L58.6,174.5L97.6,185.0L95.5,200.1L71.6,212.9L73.8,238.5L206.1,237.4L207.2,216.4L200.7,207.1L182.2,200.1L180.1,181.5L197.4,160.6L243.0,145.5L240.8,117.5L82.4,117.5L79.2,124.5Z M78.1,221.1L79.2,217.6L84.6,214.1L193.1,214.1L199.6,219.9L198.5,229.2L79.2,228.1Z M29.3,135.0L46.6,132.7L61.8,133.8L68.3,132.7L79.2,135.0L78.1,171.1L59.7,165.2L46.6,157.1L38.0,148.9Z M87.9,168.7L90.0,126.8L234.3,128.0L233.2,139.6L197.4,150.1L180.1,162.9L170.3,187.3L174.6,203.6L103.1,203.6L107.4,193.2L106.3,182.7L98.7,173.4Z M78.1,52.4L79.2,57.0L86.8,61.7L80.3,83.8L83.5,91.9L124.7,104.7L130.2,97.7L134.5,80.3L139.9,78.0L211.5,104.7L224.5,102.4L231.1,93.1L232.1,81.5L224.5,71.0L148.6,46.5L146.4,41.9L149.7,23.3L142.1,12.8L113.9,4.7L103.1,11.6L98.7,25.6L87.9,26.8Z M139.9,64.0L143.2,55.9L145.4,54.7L149.7,55.9L152.9,58.2L168.1,61.7L170.3,64.0L181.2,66.3L182.2,68.7L185.5,67.5L187.7,69.8L193.1,69.8L198.5,73.3L200.7,72.1L203.9,74.5L218.0,78.0L222.4,81.5L223.5,87.3L220.2,94.3L218.0,95.4L209.4,94.3L199.6,89.6L196.3,89.6L194.2,87.3L189.8,87.3L185.5,83.8L180.1,83.8L156.2,73.3L142.1,69.8Z M93.3,34.9L95.5,37.2L92.2,48.9L90.0,53.5L86.8,52.4L86.8,47.7L88.9,45.4L88.9,40.7L91.1,36.1Z M113.9,14.0L118.2,14.0L135.6,19.8L141.0,24.4L141.0,32.6L135.6,47.7L134.5,55.9L131.3,60.5L125.8,82.6L123.7,82.6L124.7,86.1L123.7,90.8L119.3,94.3L109.6,91.9L109.6,89.6L103.1,89.6L91.1,84.9L90.0,80.3L96.5,62.8L107.4,23.3Z" fill="#000000" fill-rule="evenodd"/>
</svg>