<svg xmlns="http://www.w3.org/2000/svg" viewBox="0 0 256 256" width="24" height="24" fill="none">
  <path d="M178.0,162.5L174.5,161.5L154.0,161.5L152.0,163.5L152.0,210.5L154.0,212.0L159.0,212.5L162.5,210.0L163.0,194.0L171.5,194.0L178.0,192.5L181.5,190.5L185.5,185.5L186.5,182.0L186.0,171.0L184.5,167.5Z M163.0,170.5L171.5,170.5L173.0,171.0L175.5,173.5L176.0,175.0L176.0,181.5L175.0,183.5L173.5,185.0L171.0,186.0L162.5,185.5Z M107.0,161.5L105.5,163.0L105.0,167.0L107.5,170.5L118.0,171.0L118.0,210.0L121.5,212.5L126.5,212.0L128.5,210.5L129.0,170.5L139.5,170.5L141.5,168.0L141.5,163.5L140.0,161.5Z M97.0,161.5L69.5,161.5L67.0,163.0L66.5,209.5L68.5,212.0L73.5,212.5L77.0,210.5L77.5,191.0L88.5,191.0L91.0,189.0L91.0,185.0L89.5,183.0L77.0,182.0L77.5,170.5L96.5,170.5L99.0,166.5Z M163.5,128.5L160.5,130.0L159.5,131.5L159.5,135.0L161.5,137.5L162.5,138.0L165.5,138.0L167.5,137.0L168.5,135.5L169.0,132.5L168.0,130.5L167.0,129.5L165.0,128.5Z M81.5,2.0L57.5,31.0L62.5,43.5L74.0,45.5L73.5,64.0L51.5,70.0L47.5,98.0L31.0,114.0L34.0,247.0L47.5,255.5L215.5,253.0L225.0,238.0L225.0,146.0L217.5,132.5L202.0,128.0L200.5,73.0L177.0,63.0L177.0,50.5L162.0,45.0L162.0,11.0L150.5,0.0L135.0,8.0L133.5,45.5L118.5,51.0L119.0,63.5L102.5,63.5L103.0,45.0L114.0,43.5L119.0,30.5L95.0,2.0Z M61.0,74.5L74.0,74.0L85.0,90.5L97.0,88.0L103.0,73.5L127.5,73.5L145.0,90.5L168.5,73.5L192.0,77.5L192.0,128.5L179.5,135.0L215.0,144.5L211.0,244.5L48.5,246.0L41.5,241.0L44.5,109.0L98.5,107.5L111.5,136.5L149.0,134.0L117.0,128.5L114.0,110.5L103.0,99.0L57.5,97.5Z M147.0,9.5L151.0,10.5L152.5,12.5L153.5,51.0L158.5,55.0L168.0,55.0L169.5,56.5L149.0,81.0L147.0,81.0L126.5,57.5L128.0,55.0L137.5,55.0L143.0,49.5L143.5,12.5Z M87.5,9.5L92.0,12.5L109.5,33.0L108.5,35.5L98.0,36.0L93.5,40.5L93.0,77.5L90.0,81.0L86.5,81.0L83.5,77.5L83.0,40.5L78.5,36.0L67.0,34.5L68.0,31.5Z" fill="#000000" fill-rule="evenodd"/>
</svg>