<svg xmlns="http://www.w3.org/2000/svg" viewBox="0 0 256 256" width="24" height="24" fill="none">
  <path d="M183.5,158.9L159.6,181.9L157.9,187.7L215.9,243.7L221.9,244.5L247.5,221.4L248.3,214.8L192.0,160.5Z M97.3,130.9L93.9,132.5L91.3,135.0L89.6,138.3L89.6,144.9L91.3,148.2L93.0,149.8L98.1,152.3L103.3,152.3L106.7,150.6L110.1,147.3L111.8,144.1L111.8,139.1L110.1,135.8L105.8,131.7L103.3,130.9Z M88.7,47.7L76.8,52.7L67.4,60.9L61.4,75.7L81.1,81.5L85.3,70.8L92.2,65.9L105.0,65.0L110.9,67.5L116.9,75.7L116.1,84.0L93.0,104.5L88.7,122.6L110.1,122.6L112.6,111.1L125.4,101.2L136.5,88.1L137.4,69.1L134.0,61.7L117.8,49.4L101.5,46.1Z M44.4,28.8L23.0,51.0L10.2,84.8L11.1,115.2L26.5,148.2L50.3,170.4L81.9,182.7L114.3,183.6L146.8,172.0L152.7,176.2L174.1,155.6L171.5,150.6L185.2,130.1L190.3,112.8L189.4,79.8L174.9,48.6L148.5,24.7L114.3,12.3L80.2,13.2Z M81.9,30.5L108.4,28.8L137.4,37.9L157.0,54.3L170.7,79.8L173.2,102.9L164.7,130.9L146.8,151.5L124.6,163.0L95.6,166.3L72.5,161.3L43.5,140.8L30.7,117.7L28.2,88.9L37.5,61.7L59.7,39.5Z" fill="#000000" fill-rule="evenodd"/>
</svg>