<svg xmlns="http://www.w3.org/2000/svg" viewBox="0 0 256 256" width="24" height="24" fill="none">
  <path d="M231.8,66.6L222.2,71.7L227.0,138.2L207.7,179.2L164.2,220.2L120.8,220.2L101.4,209.9L91.8,199.7L111.1,184.3L43.5,184.3L24.2,235.5L53.1,225.3L82.1,245.8L130.4,250.9L149.7,245.8L202.9,215.0L231.8,184.3L246.3,153.6L246.3,97.3Z M231.8,20.5L202.9,30.7L164.2,5.1L111.1,5.1L43.5,41.0L24.2,61.4L4.8,102.4L4.8,153.6L14.5,179.2L29.0,174.1L24.2,112.6L48.3,66.6L77.3,35.8L125.6,30.7L149.7,41.0L164.2,56.3L144.9,71.7L212.5,71.7Z" fill="#000000" fill-rule="evenodd"/>
</svg>