<svg xmlns="http://www.w3.org/2000/svg" viewBox="0 0 256 256" width="24" height="24" fill="none">
  <path d="M114.0,206.0L112.0,208.0L111.0,212.0L115.0,216.0L118.0,216.0L120.0,215.0L121.0,213.0L120.0,207.0L118.0,206.0Z M92.0,206.0L89.0,209.0L89.0,213.0L92.0,216.0L96.0,216.0L99.0,213.0L99.0,209.0L96.0,206.0Z M70.0,206.0L67.0,209.0L67.0,213.0L70.0,216.0L74.0,216.0L77.0,212.0L77.0,209.0L74.0,206.0Z M48.0,206.0L46.0,207.0L46.0,215.0L48.0,216.0L51.0,216.0L55.0,212.0L55.0,210.0L52.0,206.0Z M25.0,206.0L23.0,208.0L22.0,212.0L26.0,216.0L29.0,216.0L31.0,215.0L32.0,213.0L32.0,209.0L31.0,207.0L29.0,206.0Z M3.0,206.0L0.0,209.0L0.0,213.0L3.0,216.0L7.0,216.0L10.0,213.0L10.0,209.0L7.0,206.0Z M3.0,184.0L1.0,185.0L0.0,187.0L0.0,190.0L4.0,194.0L6.0,194.0L10.0,191.0L10.0,187.0L9.0,185.0L7.0,184.0Z M1.0,163.0L0.0,165.0L0.0,168.0L1.0,170.0L9.0,170.0L10.0,168.0L10.0,164.0L8.0,162.0L4.0,162.0Z M136.0,146.0L134.0,238.0L138.0,245.0L145.0,249.0L244.0,249.0L252.0,243.0L255.0,237.0L255.0,174.0L248.0,164.0L240.0,161.0L201.0,161.0L185.0,145.0L168.0,139.0L147.0,139.0Z M4.0,139.0L0.0,142.0L0.0,146.0L3.0,149.0L7.0,149.0L9.0,148.0L10.0,146.0L10.0,142.0L8.0,140.0Z M3.0,117.0L0.0,120.0L0.0,124.0L3.0,127.0L7.0,127.0L10.0,124.0L10.0,120.0L7.0,117.0Z M3.0,95.0L1.0,96.0L0.0,98.0L0.0,101.0L4.0,105.0L6.0,105.0L10.0,102.0L10.0,98.0L9.0,96.0Z M114.0,73.0L112.0,75.0L112.0,80.0L114.0,82.0L119.0,82.0L121.0,80.0L121.0,75.0L119.0,73.0Z M93.0,72.0L89.0,76.0L89.0,79.0L90.0,81.0L92.0,82.0L98.0,81.0L99.0,79.0L99.0,75.0L97.0,73.0Z M71.0,72.0L67.0,75.0L67.0,80.0L69.0,82.0L74.0,82.0L76.0,81.0L77.0,79.0L77.0,76.0L73.0,72.0Z M47.0,73.0L45.0,75.0L45.0,80.0L47.0,82.0L52.0,82.0L54.0,80.0L54.0,75.0L52.0,73.0Z M23.0,74.0L22.0,78.0L25.0,82.0L30.0,82.0L32.0,80.0L32.0,75.0L30.0,73.0L26.0,73.0Z M4.0,72.0L0.0,76.0L0.0,79.0L1.0,81.0L9.0,81.0L10.0,79.0L10.0,75.0L8.0,73.0Z M4.0,50.0L0.0,53.0L0.0,57.0L3.0,60.0L7.0,60.0L9.0,59.0L10.0,57.0L10.0,53.0L7.0,50.0Z M3.0,28.0L0.0,31.0L0.0,35.0L3.0,38.0L7.0,38.0L10.0,35.0L10.0,31.0L7.0,28.0Z M138.0,10.0L134.0,17.0L134.0,105.0L140.0,113.0L147.0,116.0L242.0,116.0L253.0,108.0L255.0,41.0L249.0,31.0L243.0,28.0L200.0,27.0L187.0,13.0L171.0,6.0L145.0,6.0Z M3.0,6.0L1.0,7.0L0.0,9.0L0.0,12.0L4.0,16.0L6.0,16.0L10.0,13.0L10.0,9.0L9.0,7.0Z" fill="#000000" fill-rule="evenodd"/>
</svg>