<svg xmlns="http://www.w3.org/2000/svg" viewBox="0 0 256 256" width="24" height="24" fill="none">
  <path d="M123.5,217.1L123.5,243.3L132.5,243.3L132.5,217.1Z M123.5,180.7L123.5,207.4L132.5,207.4L132.5,180.7Z M123.5,144.8L123.5,171.1L132.5,171.1L132.5,144.8Z M123.5,108.5L123.5,135.2L132.5,135.2L132.5,108.5Z M123.5,72.6L123.5,98.9L132.5,98.9L132.5,72.6Z M123.5,36.3L123.5,63.0L132.5,63.0L132.5,36.3Z M146.9,20.1L146.9,226.7L255.1,226.7L255.1,20.1Z M159.0,31.1L243.9,31.9L243.0,215.7L158.1,214.9Z M0.4,20.1L0.4,226.7L108.7,226.7L108.7,20.1Z M12.6,31.1L97.5,31.9L96.6,215.7L11.7,214.9Z M123.5,0.4L123.5,26.7L132.5,26.7L132.5,0.4Z" fill="#000000" fill-rule="evenodd"/>
</svg>