<svg xmlns="http://www.w3.org/2000/svg" viewBox="0 0 256 256" width="24" height="24" fill="none">
  <path d="M20.1,146.9L20.1,255.1L227.1,255.1L227.1,146.9Z M31.1,159.0L215.3,158.1L216.2,243.0L31.9,243.9Z M217.1,123.5L217.1,132.5L243.3,132.5L243.3,123.5Z M180.7,123.5L180.7,132.5L207.4,132.5L207.4,123.5Z M144.8,123.5L144.8,132.5L171.1,132.5L171.1,123.5Z M108.5,123.5L108.5,132.5L135.2,132.5L135.2,123.5Z M72.6,123.5L72.6,132.5L98.9,132.5L98.9,123.5Z M36.3,123.5L36.3,132.5L63.0,132.5L63.0,123.5Z M0.4,123.5L0.4,132.5L26.7,132.5L26.7,123.5Z M20.1,0.4L20.1,108.7L227.1,108.7L227.1,0.4Z M31.1,12.6L215.3,11.7L216.2,96.6L31.9,97.5Z" fill="#000000" fill-rule="evenodd"/>
</svg>