<svg xmlns="http://www.w3.org/2000/svg" viewBox="0 0 256 256" width="24" height="24" fill="none">
  <path d="M175.0,159.0L173.0,164.0L192.0,220.0L194.0,233.0L137.0,191.0L133.0,191.0L131.0,197.0L205.0,249.0L208.0,244.0L181.0,161.0Z M80.0,159.0L74.0,161.0L47.0,244.0L50.0,249.0L123.0,197.0L122.0,193.0L117.0,192.0L61.0,233.0L63.0,220.0L82.0,164.0Z M177.0,152.0L181.0,155.0L250.0,106.0L255.0,101.0L254.0,97.0L164.0,96.0L162.0,98.0L165.0,104.0L237.0,105.0L180.0,146.0Z M0.0,101.0L67.0,151.0L74.0,153.0L75.0,146.0L18.0,105.0L91.0,104.0L94.0,98.0L92.0,96.0L1.0,97.0Z M126.0,7.0L123.0,10.0L97.0,94.0L99.0,96.0L105.0,93.0L125.0,30.0L129.0,27.0L150.0,93.0L153.0,97.0L158.0,96.0L132.0,10.0Z" fill="#000000" fill-rule="evenodd"/>
</svg>