<svg xmlns="http://www.w3.org/2000/svg" viewBox="0 0 256 256" width="24" height="24" fill="none">
  <path d="M0.0,80.0L0.0,220.0L14.0,240.0L29.0,245.0L226.0,245.0L251.0,230.0L255.0,80.0Z M196.0,198.0L198.0,196.0L233.0,196.0L235.0,198.0L235.0,213.0L234.0,217.0L228.0,223.0L225.0,224.0L198.0,224.0L196.0,222.0Z M139.0,196.0L176.0,197.0L175.0,224.0L138.0,223.0Z M80.0,196.0L117.0,197.0L116.0,224.0L79.0,223.0Z M20.0,198.0L22.0,196.0L57.0,196.0L59.0,198.0L59.0,222.0L57.0,224.0L30.0,224.0L27.0,223.0L21.0,217.0L20.0,213.0Z M196.0,150.0L198.0,148.0L233.0,148.0L235.0,150.0L235.0,174.0L233.0,176.0L198.0,176.0L196.0,174.0Z M139.0,148.0L176.0,149.0L175.0,176.0L138.0,175.0Z M80.0,148.0L117.0,149.0L116.0,176.0L79.0,175.0Z M20.0,150.0L22.0,148.0L57.0,148.0L59.0,150.0L59.0,174.0L57.0,176.0L22.0,176.0L20.0,174.0Z M196.0,102.0L198.0,100.0L233.0,100.0L235.0,102.0L235.0,126.0L233.0,128.0L198.0,128.0L196.0,126.0Z M139.0,100.0L176.0,101.0L175.0,128.0L138.0,127.0Z M80.0,100.0L117.0,101.0L116.0,128.0L79.0,127.0Z M20.0,102.0L22.0,100.0L57.0,100.0L59.0,102.0L59.0,126.0L57.0,128.0L22.0,128.0L20.0,126.0Z M0.0,36.0L0.0,78.0L255.0,78.0L254.0,32.0L242.0,16.0L227.0,10.0L28.0,10.0L13.0,16.0Z" fill="#000000" fill-rule="evenodd"/>
</svg>