<svg xmlns="http://www.w3.org/2000/svg" viewBox="0 0 256 256" width="24" height="24" fill="none">
  <path d="M18.0,157.0L18.0,237.0L140.0,237.0L140.0,157.0Z M118.0,212.0L133.0,213.0L132.0,230.0L117.0,229.0Z M95.0,212.0L110.0,213.0L109.0,230.0L94.0,229.0Z M72.0,212.0L87.0,213.0L86.0,230.0L70.0,229.0L70.0,214.0Z M49.0,212.0L62.0,212.0L64.0,214.0L63.0,230.0L47.0,229.0L47.0,214.0Z M25.0,212.0L39.0,212.0L41.0,214.0L40.0,230.0L24.0,229.0Z M118.0,188.0L133.0,189.0L132.0,206.0L117.0,205.0Z M95.0,188.0L110.0,189.0L109.0,206.0L94.0,205.0Z M71.0,188.0L87.0,189.0L86.0,206.0L70.0,205.0Z M48.0,188.0L64.0,189.0L63.0,206.0L47.0,205.0Z M25.0,188.0L41.0,189.0L40.0,206.0L24.0,205.0Z M118.0,164.0L133.0,165.0L132.0,182.0L117.0,181.0Z M95.0,164.0L110.0,165.0L109.0,182.0L94.0,181.0Z M71.0,164.0L87.0,165.0L86.0,182.0L72.0,182.0L70.0,180.0Z M48.0,164.0L64.0,165.0L63.0,182.0L49.0,182.0L47.0,180.0Z M25.0,164.0L41.0,165.0L41.0,180.0L39.0,182.0L24.0,181.0Z M82.0,127.0L83.0,134.0L90.0,134.0L90.0,126.0Z M67.0,127.0L68.0,134.0L75.0,134.0L75.0,126.0Z M248.0,24.0L183.0,0.0L88.0,19.0L75.0,83.0L83.0,62.0L150.0,86.0L207.0,82.0L247.0,62.0L247.0,99.0L179.0,129.0L150.0,113.0L82.0,112.0L82.0,90.0L74.0,113.0L5.0,114.0L0.0,249.0L120.0,255.0L10.0,248.0L8.0,147.0L150.0,148.0L149.0,247.0L127.0,255.0L248.0,212.0Z M247.0,162.0L248.0,196.0L244.0,204.0L237.0,211.0L223.0,219.0L201.0,226.0L182.0,229.0L158.0,228.0L159.0,187.0L186.0,186.0L212.0,181.0L238.0,170.0Z M7.0,123.0L11.0,120.0L147.0,120.0L150.0,123.0L149.0,140.0L7.0,139.0Z M247.0,112.0L248.0,147.0L238.0,160.0L222.0,169.0L200.0,176.0L182.0,179.0L158.0,178.0L159.0,136.0L184.0,136.0L208.0,132.0L236.0,121.0Z M83.0,38.0L95.0,24.0L122.0,12.0L151.0,7.0L180.0,7.0L212.0,13.0L229.0,20.0L244.0,32.0L248.0,46.0L240.0,58.0L217.0,71.0L186.0,78.0L155.0,79.0L127.0,75.0L102.0,66.0L86.0,53.0Z" fill="#000000" fill-rule="evenodd"/>
</svg>