<svg xmlns="http://www.w3.org/2000/svg" viewBox="0 0 256 256" width="24" height="24" fill="none">
  <path d="M53.8,171.5L53.8,176.6L122.9,215.0L138.2,212.5L143.4,207.4L199.7,176.6L199.7,171.5L163.8,151.0L158.7,151.0L130.6,169.0L122.9,169.0L99.8,153.6L89.6,151.0Z M115.2,181.8L125.4,181.8L122.9,209.9L102.4,197.1L102.4,189.4L110.1,186.9Z M158.7,158.7L153.6,186.9L138.2,179.2L133.1,174.1Z M87.0,158.7L81.9,184.3L74.2,181.8L64.0,174.1Z M133.1,35.8L135.7,84.5L161.3,97.3L169.0,105.0L169.0,143.4L207.4,163.8L207.4,76.8L156.2,48.6L151.0,43.5Z M199.7,153.6L189.4,148.5L176.6,138.2L192.0,130.6L202.2,128.0Z M199.7,84.5L199.7,115.2L174.1,99.8L184.3,92.2Z M140.8,79.4L158.7,66.6L169.0,66.6L166.4,94.7L156.2,87.0Z M120.3,35.8L102.4,43.5L97.3,48.6L46.1,76.8L46.1,163.8L84.5,143.4L84.5,105.0L92.2,97.3L117.8,84.5Z M81.9,107.5L79.4,135.7L53.8,120.3L58.9,115.2Z M79.4,64.0L76.8,94.7L71.7,89.6L58.9,84.5L56.3,79.4L61.4,74.2Z M115.2,43.5L110.1,71.7L102.4,69.1L89.6,58.9L105.0,51.2Z" fill="#000000" fill-rule="evenodd"/>
</svg>